<?xml version="1.0" encoding="UTF-8" standalone="no"?>
<svg
   xmlns:dc="http://purl.org/dc/elements/1.1/"
   xmlns:cc="http://creativecommons.org/ns#"
   xmlns:rdf="http://www.w3.org/1999/02/22-rdf-syntax-ns#"
   xmlns:svg="http://www.w3.org/2000/svg"
   xmlns="http://www.w3.org/2000/svg"
   xmlns:sodipodi="http://sodipodi.sourceforge.net/DTD/sodipodi-0.dtd"
   xmlns:inkscape="http://www.inkscape.org/namespaces/inkscape"
   aria-hidden="true"
   focusable="false"
   data-prefix="fas"
   data-icon="exclamation-triangle"
   class="svg-inline--fa fa-exclamation-triangle fa-w-18"
   role="img"
   viewBox="0 0 576 512"
   version="1.1"
   id="svg3725"
   sodipodi:docname="exclamation-triangle-solid.svg"
   inkscape:version="0.92.4 (5da689c313, 2019-01-14)">
  <metadata
     id="metadata3731">
    <rdf:RDF>
      <cc:Work
         rdf:about="">
        <dc:format>image/svg+xml</dc:format>
        <dc:type
           rdf:resource="http://purl.org/dc/dcmitype/StillImage" />
      </cc:Work>
    </rdf:RDF>
  </metadata>
  <defs
     id="defs3729" />
  <sodipodi:namedview
     pagecolor="#ffffff"
     bordercolor="#666666"
     borderopacity="1"
     objecttolerance="10"
     gridtolerance="10"
     guidetolerance="10"
     inkscape:pageopacity="0"
     inkscape:pageshadow="2"
     inkscape:window-width="1472"
     inkscape:window-height="867"
     id="namedview3727"
     showgrid="false"
     inkscape:zoom="1.5390625"
     inkscape:cx="288"
     inkscape:cy="204.0203"
     inkscape:window-x="127"
     inkscape:window-y="28"
     inkscape:window-maximized="0"
     inkscape:current-layer="svg3725" />
  <path
     fill="currentColor"
     d="M569.517 440.013C587.975 472.007 564.806 512 527.94 512H48.054c-36.937 0-59.999-40.055-41.577-71.987L246.423 23.985c18.467-32.009 64.72-31.951 83.154 0l239.94 416.028zM288 354c-25.405 0-46 20.595-46 46s20.595 46 46 46 46-20.595 46-46-20.595-46-46-46zm-43.673-165.346l7.418 136c.347 6.364 5.609 11.346 11.982 11.346h48.546c6.373 0 11.635-4.982 11.982-11.346l7.418-136c.375-6.874-5.098-12.654-11.982-12.654h-63.383c-6.884 0-12.356 5.78-11.981 12.654z"
     id="path3723" />
  <path
     style="fill:#ff0000;fill-opacity:1;stroke-width:0.64974618"
     d="M 39.082234,510.76965 C 29.126046,508.89089 22.313112,505.18177 14.716751,497.50451 8.3849844,491.10531 5.6566917,486.81755 2.7977739,478.77277 0.89925867,473.43049 0.77514175,472.52046 0.78073184,463.98376 0.78623519,455.5802 0.9336613,454.46609 2.7161868,449.35743 4.2188818,445.05076 31.291683,397.62205 125.10722,234.94119 191.36107,120.05369 246.80049,24.154315 248.30594,21.831472 c 18.6542,-28.7826264 61.48444,-28.4222477 79.92209,0.672474 0.80054,1.263261 42.7631,73.921131 93.25012,161.461934 50.48701,87.54079 104.36204,180.94783 119.72227,207.57118 15.36023,26.62335 28.90074,50.42306 30.09,52.88824 3.3099,6.86097 4.39423,12.79148 3.97878,21.76103 -0.38581,8.32971 -1.64142,13.02982 -5.39999,20.21367 -5.90661,11.28945 -16.88431,20.07366 -29.83266,23.87171 -3.68813,1.08182 -17.18568,1.14926 -250.15229,1.24986 -201.669207,0.0871 -247.077265,-0.0491 -250.802026,-0.75192 z M 298.2027,445.08248 c 16.50812,-3.64741 30.16623,-16.81651 34.64367,-33.40329 1.56213,-5.78697 1.55376,-17.65676 -0.0165,-23.39087 -5.61881,-20.51821 -23.76411,-34.43654 -44.89484,-34.43654 -17.91659,0 -33.9663,10.13788 -41.65996,26.31472 -3.22924,6.78987 -4.3713,11.96739 -4.3713,19.81726 0,7.84986 1.14206,13.02738 4.3713,19.81726 9.2732,19.49802 30.75901,29.9586 51.92763,25.28146 z m 18.9709,-110.0019 c 3.11331,-1.43688 5.13219,-3.51407 6.39316,-6.57777 0.69477,-1.68806 1.89351,-20.06263 4.70455,-72.11296 2.07472,-38.41625 3.57805,-70.59605 3.34073,-71.51068 -0.78108,-3.01031 -3.35616,-6.11019 -6.32185,-7.61022 l -2.91862,-1.47624 -35.13433,0.17675 -35.13435,0.17673 -2.63465,1.74393 c -1.65262,1.0939 -3.18547,2.88175 -4.11239,4.7965 l -1.47772,3.05257 3.74055,69.59944 c 2.05731,38.27969 4.01029,70.68259 4.33996,72.00645 0.79207,3.18072 3.46986,6.27003 6.71093,7.74225 2.41085,1.09509 4.8072,1.19276 29.26546,1.19276 24.52772,0 26.84562,-0.0951 29.23857,-1.19951 z"
     id="path3733"
     inkscape:connector-curvature="0" />
</svg>
